<svg xmlns="http://www.w3.org/2000/svg"
     viewBox="0 0 448 512"
     style="color: #458BC6;">
    <path fill="currentColor"
          d="M232.5 163.5l122.8 122.8c4.7 4.7 4.7 12.3 0 17l-22.6 22.6c-4.7 4.7-12.3 4.7-17 0L224 234.2l-91.7 91.7c-4.7 4.7-12.3 4.7-17 0l-22.6-22.6c-4.7-4.7-4.7-12.3 0-17l122.8-122.8c4.7-4.7 12.3-4.7 17 0zM448 80v352c0 26.5-21.5 48-48 48H48c-26.5 0-48-21.5-48-48V80c0-26.5 21.5-48 48-48h352c26.5 0 48 21.5 48 48zm-48 346V86c0-3.3-2.7-6-6-6H54c-3.3 0-6 2.7-6 6v340c0 3.3 2.7 6 6 6h340c3.3 0 6-2.7 6-6z" />
</svg>
